<?xml version="1.0" encoding="utf-8"?>
<!-- Generator: Adobe Illustrator 22.1.0, SVG Export Plug-In . SVG Version: 6.00 Build 0)  -->
<svg version="1.1" id="圖層_1" xmlns="http://www.w3.org/2000/svg" xmlns:xlink="http://www.w3.org/1999/xlink" x="0px" y="0px"
	 viewBox="0 0 484 83" style="enable-background:new 0 0 484 83;" xml:space="preserve">
<style type="text/css">
	.st0{clip-path:url(#SVGID_2_);fill:url(#SVGID_3_);}
	.st1{clip-path:url(#SVGID_5_);fill:url(#SVGID_6_);}
	.st2{fill:#221E1F;}
</style>
<g>
	<g>
		<defs>
			<path id="SVGID_1_" d="M38.9,35.7c0-2.1,1.7-3.9,3.9-3.9h4.6l-0.8,4.4l0,0.1c-0.3,1.9-1.9,3.3-3.8,3.3
				C40.6,39.5,38.9,37.8,38.9,35.7 M18.3,4.9c-1.9,1.3-3.5,2.9-4.9,4.6l3.6,5.8c1.2-2.1,2.9-3.9,4.9-5.3c3.7-2.6,8.2-3.6,12.6-2.8
				c4.5,0.8,8.3,3.3,10.9,7c2.3,3.4,3.4,7.4,3,11.4h-5.7c-5.6,0-10.1,4.5-10.1,10.1c0,5.6,4.5,10.1,10.1,10.1c2.4,0,4.8-0.9,6.6-2.4
				c1.8-1.6,3-3.7,3.4-6l1-5.4c8.7,0.6,15.7,8,15.7,16.9c0,4.5-1.8,8.8-5,12c-3.2,3.2-7.4,5-12,5h-4l3.9,6.2h0.1
				c6.2,0,12-2.4,16.4-6.8c4.4-4.4,6.8-10.2,6.8-16.4c0-12-9.2-21.9-20.9-23.1c0.4-5.3-1-10.6-4.1-15.1c-3.5-5.1-8.9-8.5-15-9.5
				c-1.4-0.2-2.7-0.4-4.1-0.4C26.8,0.7,22.2,2.1,18.3,4.9"/>
		</defs>
		<clipPath id="SVGID_2_">
			<use xlink:href="#SVGID_1_"  style="overflow:visible;"/>
		</clipPath>
		
			<linearGradient id="SVGID_3_" gradientUnits="userSpaceOnUse" x1="-338.6801" y1="1948.5238" x2="-337.6802" y2="1948.5238" gradientTransform="matrix(31.5989 48.9905 48.9905 -31.5989 -84729.7969 78173.2031)">
			<stop  offset="0" style="stop-color:#DE5F3D"/>
			<stop  offset="7.546124e-02" style="stop-color:#DB5039"/>
			<stop  offset="0.2422" style="stop-color:#D63531"/>
			<stop  offset="0.3892" style="stop-color:#D2242C"/>
			<stop  offset="0.5" style="stop-color:#D11E2A"/>
			<stop  offset="0.6108" style="stop-color:#D2242C"/>
			<stop  offset="0.7578" style="stop-color:#D63531"/>
			<stop  offset="0.9245" style="stop-color:#DB5039"/>
			<stop  offset="1" style="stop-color:#DE5F3D"/>
		</linearGradient>
		<polygon class="st0" points="57.3,-27.6 108,51 31.6,100.2 -19.1,21.6 		"/>
	</g>
	<g>
		<defs>
			<path id="SVGID_4_" d="M0.7,65.6c-0.6,3.3,1.9,6.3,5.3,6.3h35.3l-3.9-6.2H7l6.7-37.9l-4.9-7.9L0.7,65.6z"/>
		</defs>
		<clipPath id="SVGID_5_">
			<use xlink:href="#SVGID_4_"  style="overflow:visible;"/>
		</clipPath>
		
			<linearGradient id="SVGID_6_" gradientUnits="userSpaceOnUse" x1="-343.7167" y1="1993.8442" x2="-342.7166" y2="1993.8442" gradientTransform="matrix(-32.8849 28.1083 28.1083 32.8849 -67316.1094 -55868.625)">
			<stop  offset="0" style="stop-color:#DE5F3D"/>
			<stop  offset="1" style="stop-color:#FFCE88"/>
		</linearGradient>
		<polygon class="st1" points="67,49.9 17.5,92.2 -25.6,41.8 23.9,-0.5 		"/>
	</g>
</g>
<g>
	<path class="st2" d="M143.1,65.8h-17.7c-2.6,0-4.4-0.6-5.5-1.7c-1.1-1.1-1.6-3-1.6-5.5V15.1c0-2.5,0.6-4.4,1.7-5.5
		c1.1-1.1,2.9-1.7,5.4-1.7h18.7c2.8,0,5.2,0.2,7.2,0.5c2,0.3,3.8,1,5.4,2c1.4,0.8,2.6,1.8,3.6,3.1c1.1,1.2,1.9,2.6,2.4,4.1
		c0.6,1.5,0.8,3.1,0.8,4.8c0,5.8-2.9,10-8.7,12.7c7.6,2.4,11.4,7.1,11.4,14.1c0,3.2-0.8,6.1-2.5,8.7c-1.7,2.6-3.9,4.5-6.7,5.7
		c-1.8,0.7-3.8,1.3-6.1,1.6C148.8,65.6,146.2,65.8,143.1,65.8z M130.1,16.7v15h10.7c2.9,0,5.2-0.3,6.8-0.8c1.6-0.6,2.8-1.6,3.6-3.2
		c0.7-1.1,1-2.3,1-3.7c0-2.9-1-4.9-3.1-5.8c-2.1-1-5.2-1.4-9.5-1.4H130.1z M142.2,40.1h-12.2V57h12.6c7.9,0,11.9-2.9,11.9-8.6
		c0-2.9-1-5-3.1-6.4C149.4,40.8,146.3,40.1,142.2,40.1z"/>
	<path class="st2" d="M186.5,51.2v9c0,2.2-0.5,3.8-1.5,4.9c-1,1.1-2.3,1.6-3.9,1.6c-1.6,0-2.8-0.6-3.8-1.7c-1-1.1-1.5-2.7-1.5-4.9
		v-30c0-4.8,1.7-7.3,5.2-7.3c1.8,0,3.1,0.6,3.9,1.7c0.8,1.1,1.2,2.8,1.3,5c1.3-2.2,2.6-3.9,4-5c1.4-1.1,3.2-1.7,5.4-1.7
		c2.3,0,4.5,0.6,6.6,1.7c2.1,1.1,3.2,2.6,3.2,4.5c0,1.3-0.5,2.4-1.4,3.3c-0.9,0.9-1.9,1.3-2.9,1.3c-0.4,0-1.3-0.2-2.9-0.7
		c-1.5-0.5-2.8-0.7-4-0.7c-1.6,0-2.9,0.4-3.9,1.2c-1,0.8-1.8,2.1-2.3,3.7c-0.6,1.6-0.9,3.6-1.1,5.8C186.6,45.3,186.5,48,186.5,51.2z
		"/>
	<path class="st2" d="M236.4,60.7c-2.6,2-5.1,3.5-7.6,4.6c-2.4,1-5.2,1.5-8.2,1.5c-2.8,0-5.2-0.5-7.3-1.6c-2.1-1.1-3.7-2.6-4.8-4.4
		c-1.1-1.9-1.7-3.9-1.7-6.1c0-2.9,0.9-5.5,2.8-7.5c1.9-2.1,4.4-3.5,7.7-4.2c0.7-0.2,2.4-0.5,5.1-1.1c2.7-0.6,5-1.1,7-1.5
		c1.9-0.5,4-1,6.3-1.7c-0.1-2.8-0.7-4.9-1.7-6.3c-1-1.3-3.1-2-6.3-2c-2.7,0-4.8,0.4-6.2,1.1c-1.4,0.8-2.6,1.9-3.6,3.4
		c-1,1.5-1.7,2.5-2.1,3c-0.4,0.5-1.3,0.7-2.6,0.7c-1.2,0-2.3-0.4-3.1-1.2c-0.9-0.8-1.3-1.8-1.3-3c0-1.9,0.7-3.7,2-5.5
		c1.3-1.8,3.4-3.3,6.3-4.4c2.8-1.2,6.4-1.7,10.6-1.7c4.7,0,8.5,0.6,11.2,1.7c2.7,1.1,4.6,2.9,5.7,5.3c1.1,2.4,1.7,5.6,1.7,9.6
		c0,2.5,0,4.7,0,6.4c0,1.8,0,3.7-0.1,5.9c0,2,0.3,4.1,1,6.3c0.7,2.2,1,3.6,1,4.2c0,1.1-0.5,2.1-1.6,3c-1,0.9-2.2,1.4-3.5,1.4
		c-1.1,0-2.2-0.5-3.3-1.6C238.7,64.2,237.6,62.7,236.4,60.7z M235.7,45.1c-1.6,0.6-3.9,1.2-6.9,1.8c-3,0.6-5.1,1.1-6.3,1.4
		c-1.2,0.3-2.3,0.9-3.3,1.8c-1.1,0.9-1.6,2.1-1.6,3.7c0,1.6,0.6,3,1.9,4.2c1.2,1.1,2.9,1.7,4.9,1.7c2.1,0,4.1-0.5,5.9-1.4
		c1.8-0.9,3.1-2.1,4-3.6c1-1.6,1.5-4.3,1.5-8V45.1z"/>
	<path class="st2" d="M262.8,29.7l8.7,24.5l9.4-25.5c0.7-2.1,1.5-3.5,2.2-4.4c0.7-0.9,1.8-1.3,3.2-1.3c1.4,0,2.5,0.5,3.5,1.4
		c1,0.9,1.4,2,1.4,3.2c0,0.5-0.1,1-0.3,1.7c-0.2,0.6-0.4,1.2-0.6,1.8c-0.2,0.6-0.5,1.2-0.8,1.9l-10.3,25.6c-0.3,0.7-0.7,1.7-1.1,2.8
		c-0.5,1.1-1,2.1-1.5,2.9c-0.6,0.8-1.3,1.4-2.1,1.9c-0.8,0.4-1.8,0.7-3,0.7c-1.5,0-2.7-0.3-3.7-1c-0.9-0.7-1.6-1.5-2-2.3
		c-0.4-0.8-1.2-2.5-2.2-4.9l-10.3-25.4c-0.2-0.6-0.5-1.3-0.7-1.9c-0.3-0.6-0.5-1.3-0.6-1.9c-0.2-0.7-0.3-1.2-0.3-1.7
		c0-0.7,0.2-1.5,0.7-2.2c0.4-0.7,1.1-1.3,1.9-1.8c0.8-0.5,1.6-0.7,2.6-0.7c1.8,0,3,0.5,3.7,1.5C261.2,25.5,262,27.3,262.8,29.7z"/>
	<path class="st2" d="M328,47.5h-21.1c0,2.4,0.5,4.6,1.5,6.5c1,1.9,2.2,3.3,3.8,4.2c1.6,0.9,3.3,1.4,5.3,1.4c1.3,0,2.5-0.2,3.5-0.5
		c1.1-0.3,2.1-0.8,3.1-1.4c1-0.6,1.9-1.3,2.8-2.1c0.8-0.7,1.9-1.7,3.3-3c0.6-0.5,1.3-0.7,2.4-0.7c1.1,0,2,0.3,2.7,0.9
		c0.7,0.6,1,1.5,1,2.6c0,1-0.4,2.1-1.1,3.4c-0.8,1.3-1.9,2.6-3.5,3.7c-1.5,1.2-3.5,2.2-5.8,3c-2.3,0.8-5,1.2-8,1.2
		c-6.9,0-12.3-2-16.1-5.9c-3.8-3.9-5.8-9.3-5.8-16.1c0-3.2,0.5-6.1,1.4-8.9c0.9-2.7,2.3-5.1,4.1-7c1.8-1.9,4.1-3.4,6.7-4.5
		c2.7-1,5.6-1.6,8.8-1.6c4.2,0,7.8,0.9,10.8,2.7c3,1.8,5.3,4.1,6.8,6.9c1.5,2.8,2.2,5.7,2.2,8.6c0,2.7-0.8,4.5-2.3,5.3
		C333,47.1,330.8,47.5,328,47.5z M306.9,41.4h19.5c-0.3-3.7-1.3-6.4-3-8.3c-1.7-1.8-4-2.7-6.8-2.7c-2.7,0-4.9,0.9-6.6,2.8
		C308.3,35,307.3,37.8,306.9,41.4z"/>
	<path class="st2" d="M358.2,14.1v42.1h23.8c1.9,0,3.3,0.5,4.4,1.4c1,0.9,1.5,2.1,1.5,3.5c0,1.4-0.5,2.6-1.5,3.5
		c-1,0.9-2.5,1.3-4.4,1.3h-28.3c-2.6,0-4.4-0.6-5.5-1.7c-1.1-1.1-1.7-3-1.7-5.5V14.1c0-2.4,0.5-4.1,1.6-5.3c1.1-1.2,2.5-1.8,4.2-1.8
		c1.8,0,3.2,0.6,4.3,1.8C357.6,9.9,358.2,11.7,358.2,14.1z"/>
	<path class="st2" d="M435,44.9c0,3.2-0.5,6.2-1.5,8.9c-1,2.7-2.4,5-4.3,7c-1.9,1.9-4.2,3.4-6.8,4.5c-2.6,1-5.6,1.6-8.9,1.6
		c-3.3,0-6.2-0.5-8.8-1.6c-2.6-1.1-4.9-2.6-6.8-4.5c-1.9-2-3.4-4.3-4.3-6.9c-1-2.7-1.5-5.6-1.5-8.9c0-3.3,0.5-6.2,1.5-9
		c1-2.7,2.4-5,4.3-6.9c1.9-1.9,4.1-3.4,6.8-4.4c2.7-1,5.6-1.6,8.8-1.6c3.3,0,6.2,0.5,8.9,1.6c2.7,1.1,4.9,2.6,6.8,4.5
		c1.9,1.9,3.3,4.3,4.3,6.9C434.6,38.7,435,41.6,435,44.9z M424.2,44.9c0-4.4-1-7.8-2.9-10.3c-1.9-2.4-4.5-3.7-7.8-3.7
		c-2.1,0-4,0.5-5.6,1.6c-1.6,1.1-2.8,2.7-3.7,4.8c-0.9,2.1-1.3,4.6-1.3,7.5c0,2.8,0.4,5.3,1.3,7.4c0.9,2.1,2.1,3.7,3.7,4.8
		c1.6,1.1,3.5,1.7,5.6,1.7c3.3,0,5.9-1.2,7.8-3.7C423.3,52.6,424.2,49.2,424.2,44.9z"/>
	<path class="st2" d="M483.1,30.9v31.3c0,3.6-0.4,6.7-1.1,9.2c-0.8,2.6-2,4.7-3.7,6.4c-1.7,1.7-3.9,2.9-6.6,3.7
		c-2.7,0.8-6.1,1.2-10.2,1.2c-3.7,0-7-0.5-9.9-1.6c-2.9-1-5.2-2.4-6.7-4c-1.6-1.6-2.4-3.3-2.4-5.1c0-1.3,0.4-2.4,1.3-3.2
		c0.9-0.8,2-1.2,3.2-1.2c1.6,0,3,0.7,4.1,2.1c0.6,0.7,1.2,1.4,1.8,2.2c0.6,0.7,1.3,1.3,2.1,1.9c0.8,0.5,1.7,0.9,2.7,1.1
		c1.1,0.2,2.3,0.4,3.6,0.4c2.8,0,5-0.4,6.5-1.2c1.5-0.8,2.6-1.9,3.2-3.3c0.6-1.4,1-2.9,1.1-4.5c0.1-1.6,0.2-4.1,0.2-7.7
		c-1.7,2.3-3.6,4.1-5.7,5.3c-2.2,1.2-4.8,1.8-7.8,1.8c-3.6,0-6.8-0.9-9.4-2.8c-2.7-1.8-4.8-4.4-6.2-7.7c-1.4-3.3-2.2-7.1-2.2-11.5
		c0-3.2,0.4-6.2,1.3-8.8c0.9-2.6,2.1-4.8,3.8-6.6c1.6-1.8,3.5-3.1,5.6-4c2.1-0.9,4.5-1.4,7-1.4c3.1,0,5.7,0.6,7.9,1.8
		c2.2,1.2,4.3,3,6.2,5.5v-1.5c0-1.9,0.5-3.3,1.4-4.3c0.9-1,2.1-1.5,3.6-1.5c2.1,0,3.5,0.7,4.1,2C482.8,26.4,483.1,28.3,483.1,30.9z
		 M451.9,44.5c0,4.4,1,7.7,2.9,9.9c1.9,2.2,4.4,3.4,7.4,3.4c1.8,0,3.5-0.5,5.1-1.4c1.6-1,2.9-2.4,3.9-4.3c1-1.9,1.5-4.3,1.5-7
		c0-4.4-1-7.8-2.9-10.3c-1.9-2.4-4.5-3.7-7.6-3.7c-3.1,0-5.5,1.2-7.4,3.5C452.9,36.9,451.9,40.2,451.9,44.5z"/>
</g>
</svg>
